<svg data-v-423bf9ae="" xmlns="http://www.w3.org/2000/svg" viewBox="0 0 1213 759" class="iconLeft"><!----><!----><!----><g data-v-423bf9ae="" id="e38cdc55-5ac8-4638-b898-8eb70c427ffe" fill="#000000" transform="matrix(4.590665418742173,0,0,4.590665418742173,774.6256730100647,349.05879150246255)"><path d="M6.94 2.30L6.26 3.95L6.26 3.95Q5.73 3.54 5.16 3.32L5.16 3.32L5.16 3.32Q4.59 3.09 4.09 3.09L4.09 3.09L4.09 3.09Q3.54 3.09 3.28 3.24L3.28 3.24L3.28 3.24Q3.01 3.39 3.01 3.88L3.01 3.88L3.01 3.88Q3.01 4.13 3.12 4.31L3.12 4.31L3.12 4.31Q3.22 4.49 3.42 4.63L3.42 4.63L3.42 4.63Q3.61 4.77 3.89 4.88L3.89 4.88L3.89 4.88Q4.16 4.98 4.48 5.10L4.48 5.10L4.48 5.10Q4.96 5.25 5.45 5.45L5.45 5.45L5.45 5.45Q5.94 5.64 6.33 5.95L6.33 5.95L6.33 5.95Q6.73 6.26 6.99 6.73L6.99 6.73L6.99 6.73Q7.24 7.21 7.24 7.94L7.24 7.94L7.24 7.94Q7.24 8.65 6.96 9.16L6.96 9.16L6.96 9.16Q6.69 9.67 6.24 10.00L6.24 10.00L6.24 10.00Q5.80 10.33 5.22 10.49L5.22 10.49L5.22 10.49Q4.65 10.65 4.03 10.65L4.03 10.65L4.03 10.65Q3.14 10.65 2.26 10.30L2.26 10.30L2.26 10.30Q1.39 9.95 0.74 9.27L0.74 9.27L1.41 7.67L1.41 7.67Q1.99 8.27 2.71 8.61L2.71 8.61L2.71 8.61Q3.43 8.95 4.09 8.95L4.09 8.95L4.09 8.95Q4.68 8.95 4.99 8.78L4.99 8.78L4.99 8.78Q5.31 8.61 5.32 8.09L5.32 8.09L5.32 8.09Q5.32 7.80 5.21 7.59L5.21 7.59L5.21 7.59Q5.10 7.38 4.89 7.22L4.89 7.22L4.89 7.22Q4.68 7.07 4.40 6.96L4.40 6.96L4.40 6.96Q4.12 6.85 3.78 6.73L3.78 6.73L3.78 6.73Q3.30 6.58 2.83 6.39L2.83 6.39L2.83 6.39Q2.35 6.20 1.97 5.89L1.97 5.89L1.97 5.89Q1.60 5.59 1.36 5.13L1.36 5.13L1.36 5.13Q1.13 4.68 1.13 3.98L1.13 3.98L1.13 3.98Q1.13 3.28 1.39 2.78L1.39 2.78L1.39 2.78Q1.64 2.28 2.06 1.97L2.06 1.97L2.06 1.97Q2.48 1.65 3.02 1.50L3.02 1.50L3.02 1.50Q3.57 1.36 4.16 1.36L4.16 1.36L4.16 1.36Q4.91 1.36 5.63 1.61L5.63 1.61L5.63 1.61Q6.36 1.86 6.94 2.30L6.94 2.30ZM11.47 10.65L11.47 10.65L11.47 10.65Q10.81 10.65 10.32 10.49L10.32 10.49L10.32 10.49Q9.84 10.32 9.52 9.93L9.52 9.93L9.52 9.93Q9.20 9.55 9.04 8.94L9.04 8.94L9.04 8.94Q8.88 8.33 8.88 7.45L8.88 7.45L8.88 3.29L10.75 3.29L10.75 7.20L10.75 7.20Q10.75 8.23 11.03 8.71L11.03 8.71L11.03 8.71Q11.31 9.20 12.00 9.20L12.00 9.20L12.00 9.20Q12.82 9.20 13.22 8.52L13.22 8.52L13.22 8.52Q13.62 7.84 13.62 6.72L13.62 6.72L13.62 3.29L15.50 3.29L15.50 10.50L14.07 10.50L13.69 9.51L13.69 9.51Q13.69 9.51 13.55 9.68L13.55 9.68L13.55 9.68Q13.41 9.86 13.13 10.07L13.13 10.07L13.13 10.07Q12.85 10.29 12.44 10.47L12.44 10.47L12.44 10.47Q12.03 10.65 11.47 10.65ZM22.58 3.29L24.05 3.29L24.05 9.63L24.05 9.63Q24.05 10.32 23.84 10.93L23.84 10.93L23.84 10.93Q23.62 11.54 23.15 12.01L23.15 12.01L23.15 12.01Q22.68 12.47 21.95 12.76L21.95 12.76L21.95 12.76Q21.22 13.05 20.20 13.06L20.20 13.06L20.20 13.06Q19.66 13.06 19.21 12.98L19.21 12.98L19.21 12.98Q18.76 12.91 18.44 12.81L18.44 12.81L18.44 12.81Q18.06 12.70 17.75 12.54L17.75 12.54L17.89 11.05L17.89 11.05Q18.20 11.20 18.56 11.33L18.56 11.33L18.56 11.33Q18.89 11.44 19.30 11.52L19.30 11.52L19.30 11.52Q19.71 11.59 20.20 11.59L20.20 11.59L20.20 11.59Q20.79 11.59 21.16 11.43L21.16 11.43L21.16 11.43Q21.53 11.27 21.75 11.03L21.75 11.03L21.75 11.03Q21.97 10.78 22.06 10.50L22.06 10.50L22.06 10.50Q22.16 10.22 22.18 9.97L22.18 9.97L22.18 9.97Q22.20 9.73 22.19 9.56L22.19 9.56L22.19 9.56Q22.18 9.39 22.18 9.39L22.18 9.39L22.18 9.39Q22.18 9.39 22.06 9.56L22.06 9.56L22.06 9.56Q21.95 9.73 21.70 9.94L21.70 9.94L21.70 9.94Q21.45 10.15 21.04 10.32L21.04 10.32L21.04 10.32Q20.64 10.50 20.05 10.50L20.05 10.50L20.05 10.50Q19.42 10.50 18.86 10.31L18.86 10.31L18.86 10.31Q18.30 10.12 17.88 9.68L17.88 9.68L17.88 9.68Q17.46 9.24 17.21 8.53L17.21 8.53L17.21 8.53Q16.97 7.81 16.97 6.78L16.97 6.78L16.97 6.78Q16.97 5.74 17.28 5.04L17.28 5.04L17.28 5.04Q17.58 4.34 18.05 3.91L18.05 3.91L18.05 3.91Q18.51 3.49 19.05 3.30L19.05 3.30L19.05 3.30Q19.59 3.12 20.05 3.12L20.05 3.12L20.05 3.12Q20.59 3.12 21 3.28L21 3.28L21 3.28Q21.41 3.44 21.66 3.64L21.66 3.64L21.66 3.64Q21.92 3.84 22.06 4.00L22.06 4.00L22.06 4.00Q22.19 4.16 22.19 4.16L22.19 4.16L22.58 3.29ZM22.18 6.82L22.18 6.82L22.18 6.82Q22.18 5.68 21.73 5.13L21.73 5.13L21.73 5.13Q21.28 4.58 20.55 4.58L20.55 4.58L20.55 4.58Q19.82 4.58 19.38 5.13L19.38 5.13L19.38 5.13Q18.93 5.68 18.93 6.82L18.93 6.82L18.93 6.82Q18.93 7.95 19.38 8.50L19.38 8.50L19.38 8.50Q19.82 9.04 20.55 9.04L20.55 9.04L20.55 9.04Q21.28 9.04 21.73 8.50L21.73 8.50L21.73 8.50Q22.18 7.95 22.18 6.82ZM31.14 3.29L32.61 3.29L32.61 9.63L32.61 9.63Q32.61 10.32 32.39 10.93L32.39 10.93L32.39 10.93Q32.17 11.54 31.70 12.01L31.70 12.01L31.70 12.01Q31.23 12.47 30.51 12.76L30.51 12.76L30.51 12.76Q29.78 13.05 28.76 13.06L28.76 13.06L28.76 13.06Q28.21 13.06 27.76 12.98L27.76 12.98L27.76 12.98Q27.31 12.91 26.99 12.81L26.99 12.81L26.99 12.81Q26.61 12.70 26.31 12.54L26.31 12.54L26.45 11.05L26.45 11.05Q26.75 11.20 27.12 11.33L27.12 11.33L27.12 11.33Q27.44 11.44 27.85 11.52L27.85 11.52L27.85 11.52Q28.27 11.59 28.76 11.59L28.76 11.59L28.76 11.59Q29.34 11.59 29.71 11.43L29.71 11.43L29.71 11.43Q30.09 11.27 30.30 11.03L30.30 11.03L30.30 11.03Q30.52 10.78 30.62 10.50L30.62 10.50L30.62 10.50Q30.72 10.22 30.74 9.97L30.74 9.97L30.74 9.97Q30.76 9.73 30.74 9.56L30.74 9.56L30.74 9.56Q30.73 9.39 30.73 9.39L30.73 9.39L30.73 9.39Q30.73 9.39 30.62 9.56L30.62 9.56L30.62 9.56Q30.51 9.73 30.25 9.94L30.25 9.94L30.25 9.94Q30.00 10.15 29.60 10.32L29.60 10.32L29.60 10.32Q29.19 10.50 28.60 10.50L28.60 10.50L28.60 10.50Q27.97 10.50 27.41 10.31L27.41 10.31L27.41 10.31Q26.85 10.12 26.43 9.68L26.43 9.68L26.43 9.68Q26.01 9.24 25.77 8.53L25.77 8.53L25.77 8.53Q25.52 7.81 25.52 6.78L25.52 6.78L25.52 6.78Q25.52 5.74 25.83 5.04L25.83 5.04L25.83 5.04Q26.14 4.34 26.60 3.91L26.60 3.91L26.60 3.91Q27.06 3.49 27.60 3.30L27.60 3.30L27.60 3.30Q28.14 3.12 28.60 3.12L28.60 3.12L28.60 3.12Q29.15 3.12 29.55 3.28L29.55 3.28L29.55 3.28Q29.96 3.44 30.22 3.64L30.22 3.64L30.22 3.64Q30.48 3.84 30.61 4.00L30.61 4.00L30.61 4.00Q30.74 4.16 30.74 4.16L30.74 4.16L31.14 3.29ZM30.73 6.82L30.73 6.82L30.73 6.82Q30.73 5.68 30.28 5.13L30.28 5.13L30.28 5.13Q29.83 4.58 29.11 4.58L29.11 4.58L29.11 4.58Q28.38 4.58 27.93 5.13L27.93 5.13L27.93 5.13Q27.48 5.68 27.48 6.82L27.48 6.82L27.48 6.82Q27.48 7.95 27.93 8.50L27.93 8.50L27.93 8.50Q28.38 9.04 29.11 9.04L29.11 9.04L29.11 9.04Q29.83 9.04 30.28 8.50L30.28 8.50L30.28 8.50Q30.73 7.95 30.73 6.82ZM38.02 10.65L38.02 10.65L38.02 10.65Q36.86 10.65 36.11 10.35L36.11 10.35L36.11 10.35Q35.35 10.04 34.90 9.52L34.90 9.52L34.90 9.52Q34.44 9.00 34.26 8.32L34.26 8.32L34.26 8.32Q34.08 7.64 34.08 6.89L34.08 6.89L34.08 6.89Q34.08 6.22 34.26 5.54L34.26 5.54L34.26 5.54Q34.44 4.87 34.84 4.33L34.84 4.33L34.84 4.33Q35.24 3.79 35.88 3.46L35.88 3.46L35.88 3.46Q36.53 3.12 37.45 3.12L37.45 3.12L37.45 3.12Q38.43 3.12 39.08 3.46L39.08 3.46L39.08 3.46Q39.73 3.79 40.12 4.33L40.12 4.33L40.12 4.33Q40.52 4.87 40.68 5.54L40.68 5.54L40.68 5.54Q40.84 6.22 40.84 6.89L40.84 6.89L40.84 7.52L35.88 7.52L35.88 7.52Q35.88 8.27 36.42 8.76L36.42 8.76L36.42 8.76Q36.96 9.25 37.90 9.25L37.90 9.25L37.90 9.25Q38.43 9.25 38.88 9.14L38.88 9.14L38.88 9.14Q39.33 9.03 39.65 8.89L39.65 8.89L39.65 8.89Q40.01 8.74 40.32 8.53L40.32 8.53L40.32 10.09L40.32 10.09Q40.32 10.11 40.14 10.19L40.14 10.19L40.14 10.19Q39.96 10.28 39.65 10.38L39.65 10.38L39.65 10.38Q39.34 10.49 38.92 10.57L38.92 10.57L38.92 10.57Q38.50 10.65 38.02 10.65ZM35.88 6.19L39.06 6.19L39.06 6.19Q39.06 5.95 39.00 5.66L39.00 5.66L39.00 5.66Q38.93 5.38 38.76 5.12L38.76 5.12L38.76 5.12Q38.58 4.87 38.27 4.70L38.27 4.70L38.27 4.70Q37.95 4.54 37.45 4.54L37.45 4.54L37.45 4.54Q37.02 4.54 36.72 4.70L36.72 4.70L36.72 4.70Q36.41 4.87 36.23 5.12L36.23 5.12L36.23 5.12Q36.05 5.38 35.97 5.66L35.97 5.66L35.97 5.66Q35.88 5.95 35.88 6.19L35.88 6.19ZM47.11 3.98L46.48 5.39L46.48 5.39Q46.00 5.03 45.44 4.84L45.44 4.84L45.44 4.84Q44.88 4.66 44.51 4.66L44.51 4.66L44.51 4.66Q44.14 4.66 43.93 4.79L43.93 4.79L43.93 4.79Q43.72 4.91 43.72 5.24L43.72 5.24L43.72 5.24Q43.72 5.52 43.99 5.68L43.99 5.68L43.99 5.68Q44.25 5.85 44.65 6.00L44.65 6.00L44.65 6.00Q45.04 6.15 45.50 6.31L45.50 6.31L45.50 6.31Q45.96 6.47 46.35 6.73L46.35 6.73L46.35 6.73Q46.75 6.99 47.01 7.38L47.01 7.38L47.01 7.38Q47.28 7.78 47.28 8.40L47.28 8.40L47.28 8.40Q47.28 8.99 47.06 9.41L47.06 9.41L47.06 9.41Q46.84 9.84 46.49 10.12L46.49 10.12L46.49 10.12Q46.13 10.39 45.67 10.52L45.67 10.52L45.67 10.52Q45.21 10.65 44.72 10.65L44.72 10.65L44.72 10.65Q44.37 10.65 43.97 10.58L43.97 10.58L43.97 10.58Q43.57 10.50 43.18 10.34L43.18 10.34L43.18 10.34Q42.80 10.18 42.44 9.95L42.44 9.95L42.44 9.95Q42.08 9.72 41.82 9.42L41.82 9.42L42.43 8.05L42.43 8.05Q42.92 8.58 43.48 8.86L43.48 8.86L43.48 8.86Q44.04 9.13 44.51 9.13L44.51 9.13L44.51 9.13Q44.90 9.13 45.26 8.99L45.26 8.99L45.26 8.99Q45.63 8.85 45.64 8.51L45.64 8.51L45.64 8.51Q45.65 8.19 45.40 7.99L45.40 7.99L45.40 7.99Q45.14 7.78 44.74 7.63L44.74 7.63L44.74 7.63Q44.35 7.48 43.89 7.31L43.89 7.31L43.89 7.31Q43.43 7.15 43.04 6.90L43.04 6.90L43.04 6.90Q42.64 6.65 42.38 6.27L42.38 6.27L42.38 6.27Q42.11 5.89 42.13 5.29L42.13 5.29L42.13 5.29Q42.13 4.72 42.33 4.30L42.33 4.30L42.33 4.30Q42.53 3.89 42.87 3.63L42.87 3.63L42.87 3.63Q43.20 3.37 43.65 3.25L43.65 3.25L43.65 3.25Q44.09 3.12 44.56 3.12L44.56 3.12L44.56 3.12Q44.84 3.12 45.18 3.18L45.18 3.18L45.18 3.18Q45.51 3.23 45.86 3.35L45.86 3.35L45.86 3.35Q46.20 3.46 46.53 3.61L46.53 3.61L46.53 3.61Q46.86 3.77 47.11 3.98L47.11 3.98ZM51.74 9.20L51.74 9.20L51.74 9.20Q52.15 9.20 52.50 9.13L52.50 9.13L52.50 9.13Q52.67 9.09 52.84 9.04L52.84 9.04L52.85 10.50L52.85 10.50Q52.60 10.54 52.32 10.58L52.32 10.58L52.32 10.58Q52.08 10.61 51.76 10.63L51.76 10.63L51.76 10.63Q51.44 10.65 51.07 10.65L51.07 10.65L51.07 10.65Q50.54 10.60 50.13 10.33L50.13 10.33L50.13 10.33Q49.78 10.09 49.50 9.63L49.50 9.63L49.50 9.63Q49.21 9.16 49.21 8.30L49.21 8.30L49.21 5.36L47.84 5.36L47.84 3.99L49.21 3.99L49.21 1.97L51.07 1.55L51.07 3.99L52.77 3.99L52.77 5.36L51.10 5.36L51.10 8.20L51.10 8.20Q51.10 8.39 51.15 8.56L51.15 8.56L51.15 8.56Q51.20 8.74 51.29 8.88L51.29 8.88L51.29 8.88Q51.38 9.02 51.50 9.11L51.50 9.11L51.50 9.11Q51.62 9.20 51.74 9.20ZM56.31 10.50L54.42 10.50L54.42 3.29L56.31 3.29L56.31 10.50ZM56.41 1.02L56.41 1.02L56.41 1.02Q56.41 1.47 56.10 1.78L56.10 1.78L56.10 1.78Q55.79 2.09 55.36 2.09L55.36 2.09L55.36 2.09Q54.91 2.09 54.60 1.78L54.60 1.78L54.60 1.78Q54.29 1.47 54.29 1.02L54.29 1.02L54.29 1.02Q54.29 0.59 54.60 0.29L54.60 0.29L54.60 0.29Q54.91-0.01 55.36-0.01L55.36-0.01L55.36-0.01Q55.79-0.01 56.10 0.29L56.10 0.29L56.10 0.29Q56.41 0.59 56.41 1.02ZM61.64 3.12L61.64 3.12L61.64 3.12Q62.20 3.12 62.86 3.29L62.86 3.29L62.86 3.29Q63.52 3.46 64.09 3.88L64.09 3.88L64.09 3.88Q64.67 4.30 65.05 5.03L65.05 5.03L65.05 5.03Q65.44 5.75 65.44 6.89L65.44 6.89L65.44 6.89Q65.44 8.02 65.05 8.75L65.05 8.75L65.05 8.75Q64.67 9.48 64.09 9.90L64.09 9.90L64.09 9.90Q63.52 10.32 62.86 10.49L62.86 10.49L62.86 10.49Q62.20 10.65 61.64 10.65L61.64 10.65L61.64 10.65Q61.08 10.65 60.42 10.49L60.42 10.49L60.42 10.49Q59.77 10.32 59.20 9.90L59.20 9.90L59.20 9.90Q58.63 9.48 58.25 8.75L58.25 8.75L58.25 8.75Q57.88 8.02 57.88 6.89L57.88 6.89L57.88 6.89Q57.88 5.75 58.25 5.03L58.25 5.03L58.25 5.03Q58.63 4.30 59.20 3.88L59.20 3.88L59.20 3.88Q59.77 3.46 60.42 3.29L60.42 3.29L60.42 3.29Q61.08 3.12 61.64 3.12ZM61.64 9.25L61.64 9.25L61.64 9.25Q62.43 9.25 62.95 8.64L62.95 8.64L62.95 8.64Q63.48 8.02 63.48 6.89L63.48 6.89L63.48 6.89Q63.48 5.75 62.95 5.14L62.95 5.14L62.95 5.14Q62.43 4.54 61.64 4.54L61.64 4.54L61.64 4.54Q60.89 4.54 60.37 5.14L60.37 5.14L60.37 5.14Q59.85 5.75 59.85 6.89L59.85 6.89L59.85 6.89Q59.85 7.45 59.99 7.89L59.99 7.89L59.99 7.89Q60.13 8.33 60.37 8.63L60.37 8.63L60.37 8.63Q60.61 8.93 60.94 9.09L60.94 9.09L60.94 9.09Q61.26 9.25 61.64 9.25ZM71.18 3.12L71.18 3.12L71.18 3.12Q71.82 3.12 72.28 3.34L72.28 3.34L72.28 3.34Q72.74 3.56 73.05 3.93L73.05 3.93L73.05 3.93Q73.35 4.31 73.49 4.83L73.49 4.83L73.49 4.83Q73.63 5.35 73.63 5.95L73.63 5.95L73.63 10.50L71.75 10.50L71.75 6.58L71.75 6.58Q71.75 5.54 71.47 5.05L71.47 5.05L71.47 5.05Q71.19 4.56 70.50 4.56L70.50 4.56L70.50 4.56Q69.68 4.56 69.28 5.25L69.28 5.25L69.28 5.25Q68.88 5.94 68.88 7.06L68.88 7.06L68.88 10.50L67.00 10.50L67.00 3.29L68.40 3.29L68.78 4.27L68.78 4.27Q68.92 4.12 69.09 3.91L69.09 3.91L69.09 3.91Q69.26 3.71 69.52 3.54L69.52 3.54L69.52 3.54Q69.78 3.36 70.18 3.24L70.18 3.24L70.18 3.24Q70.57 3.12 71.18 3.12ZM75.40 10.50L75.40 1.36L78.01 1.36L78.01 1.36Q78.72 1.36 79.36 1.50L79.36 1.50L79.36 1.50Q80.00 1.64 80.47 1.97L80.47 1.97L80.47 1.97Q80.93 2.31 81.21 2.86L81.21 2.86L81.21 2.86Q81.49 3.40 81.49 4.21L81.49 4.21L81.49 4.21Q81.49 5.00 81.21 5.54L81.21 5.54L81.21 5.54Q80.93 6.08 80.47 6.41L80.47 6.41L80.47 6.41Q80.01 6.75 79.42 6.89L79.42 6.89L79.42 6.89Q78.82 7.04 78.19 7.04L78.19 7.04L77.34 7.04L77.34 10.50L75.40 10.50ZM77.35 5.49L77.87 5.49L77.87 5.49Q78.22 5.49 78.51 5.43L78.51 5.43L78.51 5.43Q78.81 5.38 79.02 5.23L79.02 5.23L79.02 5.23Q79.24 5.08 79.36 4.83L79.36 4.83L79.36 4.83Q79.48 4.58 79.48 4.20L79.48 4.20L79.48 4.20Q79.48 3.81 79.36 3.56L79.36 3.56L79.36 3.56Q79.24 3.30 79.02 3.16L79.02 3.16L79.02 3.16Q78.81 3.02 78.51 2.97L78.51 2.97L78.51 2.97Q78.22 2.91 77.87 2.91L77.87 2.91L77.35 2.91L77.35 5.49ZM87.18 3.18L87.18 5.10L87.18 5.10Q86.86 5.03 86.60 5.02L86.60 5.02L86.60 5.02Q86.34 5.01 86.11 5.03L86.11 5.03L86.11 5.03Q85.67 5.05 85.38 5.22L85.38 5.22L85.38 5.22Q85.09 5.39 84.94 5.66L84.94 5.66L84.94 5.66Q84.78 5.94 84.73 6.28L84.73 6.28L84.73 6.28Q84.67 6.62 84.67 6.99L84.67 6.99L84.67 10.50L82.78 10.50L82.78 3.36L84.17 3.36L84.46 4.93L84.46 4.93Q84.46 4.93 84.50 4.77L84.50 4.77L84.50 4.77Q84.53 4.61 84.64 4.38L84.64 4.38L84.64 4.38Q84.74 4.14 84.94 3.88L84.94 3.88L84.94 3.88Q85.13 3.63 85.44 3.43L85.44 3.43L85.44 3.43Q85.74 3.23 86.16 3.15L86.16 3.15L86.16 3.15Q86.59 3.07 87.18 3.18L87.18 3.18ZM91.64 3.12L91.64 3.12L91.64 3.12Q92.20 3.12 92.86 3.29L92.86 3.29L92.86 3.29Q93.52 3.46 94.09 3.88L94.09 3.88L94.09 3.88Q94.67 4.30 95.05 5.03L95.05 5.03L95.05 5.03Q95.44 5.75 95.44 6.89L95.44 6.89L95.44 6.89Q95.44 8.02 95.05 8.75L95.05 8.75L95.05 8.75Q94.67 9.48 94.09 9.90L94.09 9.90L94.09 9.90Q93.52 10.32 92.86 10.49L92.86 10.49L92.86 10.49Q92.20 10.65 91.64 10.65L91.64 10.65L91.64 10.65Q91.08 10.65 90.43 10.49L90.43 10.49L90.43 10.49Q89.77 10.32 89.20 9.90L89.20 9.90L89.20 9.90Q88.63 9.48 88.26 8.75L88.26 8.75L88.26 8.75Q87.88 8.02 87.88 6.89L87.88 6.89L87.88 6.89Q87.88 5.75 88.26 5.03L88.26 5.03L88.26 5.03Q88.63 4.30 89.20 3.88L89.20 3.88L89.20 3.88Q89.77 3.46 90.43 3.29L90.43 3.29L90.43 3.29Q91.08 3.12 91.64 3.12ZM91.64 9.25L91.64 9.25L91.64 9.25Q92.43 9.25 92.95 8.64L92.95 8.64L92.95 8.64Q93.48 8.02 93.48 6.89L93.48 6.89L93.48 6.89Q93.48 5.75 92.95 5.14L92.95 5.14L92.95 5.14Q92.43 4.54 91.64 4.54L91.64 4.54L91.64 4.54Q90.89 4.54 90.37 5.14L90.37 5.14L90.37 5.14Q89.85 5.75 89.85 6.89L89.85 6.89L89.85 6.89Q89.85 7.45 89.99 7.89L89.99 7.89L89.99 7.89Q90.13 8.33 90.37 8.63L90.37 8.63L90.37 8.63Q90.61 8.93 90.94 9.09L90.94 9.09L90.94 9.09Q91.27 9.25 91.64 9.25Z"></path></g><defs data-v-423bf9ae=""><linearGradient data-v-423bf9ae="" gradientTransform="rotate(25)" id="efd371a9-5e91-4e15-9c93-6faa84961609" x1="0%" y1="0%" x2="100%" y2="0%"><stop data-v-423bf9ae="" offset="0%" style="stop-color: rgb(81, 164, 251); stop-opacity: 1;"></stop><stop data-v-423bf9ae="" offset="100%" style="stop-color: rgb(81, 164, 251); stop-opacity: 1;"></stop></linearGradient></defs><g data-v-423bf9ae="" id="5d7de476-3a9d-4549-ab27-3af1463be24f" transform="matrix(2.9021558973524306,0,0,2.9021558973524306,-55.918923373241,-55.92042900831956)" stroke="none" fill="url(#efd371a9-5e91-4e15-9c93-6faa84961609)"><path d="M230.223 280.597H69.777c-27.776 0-50.374-22.597-50.374-50.372V69.777c0-27.776 22.598-50.374 50.374-50.374h160.445c27.776 0 50.374 22.598 50.374 50.374v160.448c.001 27.775-22.597 50.372-50.373 50.372zM69.777 30.598c-21.604 0-39.181 17.576-39.181 39.179v160.448c0 21.603 17.576 39.179 39.181 39.179h160.445c21.604 0 39.181-17.576 39.181-39.179V69.777c0-21.604-17.576-39.179-39.181-39.179H69.777z"></path><path d="M128.092 94.407v10H202.5v71.185h-22.571l-7.931 7.931-7.931-7.931H97.5v-71.185h10.592v-10H87.5v91.185h72.425l12.073 12.072 12.073-12.072H212.5V94.407z"></path></g><!----></svg>