<svg data-v-423bf9ae="" xmlns="http://www.w3.org/2000/svg" viewBox="0 0 429 90" class="iconLeft"><!----><!----><!----><g data-v-423bf9ae="" id="e10200c9-b53c-40ac-aeee-cf500000093a" fill="black" transform="matrix(5.6980053264473165,0,0,5.6980053264473165,99.63655742835527,-7.735042022120943)"><path d="M1.30 14.35L2.45 14.35L2.45 6.12L2.52 6.12L3.35 7.76L5.68 12.01L8.02 7.76L8.85 6.12L8.92 6.12L8.92 14.35L10.07 14.35L10.07 4.58L8.55 4.58L5.74 9.84L5.67 9.84L2.87 4.58L1.30 4.58ZM15.29 14.52C17.22 14.52 18.55 13.03 18.55 10.74C18.55 8.44 17.22 6.96 15.29 6.96C13.36 6.96 12.03 8.44 12.03 10.74C12.03 13.03 13.36 14.52 15.29 14.52ZM15.29 13.52C14.08 13.52 13.23 12.78 13.23 11.26L13.23 10.22C13.23 8.69 14.08 7.95 15.29 7.95C16.49 7.95 17.35 8.69 17.35 10.22L17.35 11.26C17.35 12.78 16.49 13.52 15.29 13.52ZM23.18 14.35L25.73 7.13L24.65 7.13L23.37 10.71L22.58 13.17L22.51 13.17L21.73 10.71L20.47 7.13L19.35 7.13L21.88 14.35ZM27.73 5.43C28.21 5.43 28.42 5.18 28.42 4.80L28.42 4.62C28.42 4.24 28.21 3.99 27.73 3.99C27.26 3.99 27.05 4.24 27.05 4.62L27.05 4.80C27.05 5.18 27.26 5.43 27.73 5.43ZM27.17 14.35L28.29 14.35L28.29 7.13L27.17 7.13ZM33.39 14.52C34.75 14.52 35.78 13.85 36.25 12.87L35.45 12.29C35.07 13.09 34.37 13.54 33.46 13.54C32.12 13.54 31.32 12.60 31.32 11.35L31.32 11.02L36.51 11.02L36.51 10.49C36.51 8.44 35.32 6.96 33.39 6.96C31.43 6.96 30.14 8.44 30.14 10.74C30.14 13.03 31.43 14.52 33.39 14.52ZM33.39 7.90C34.54 7.90 35.31 8.75 35.31 10.02L35.31 10.18L31.32 10.18L31.32 10.08C31.32 8.82 32.17 7.90 33.39 7.90ZM39.65 14.35L39.65 10.18L42.36 10.18C44.11 10.18 45.09 9.10 45.09 7.38C45.09 5.66 44.11 4.58 42.36 4.58L38.47 4.58L38.47 14.35ZM39.65 5.61L42.36 5.61C43.29 5.61 43.83 6.12 43.83 7.01L43.83 7.74C43.83 8.64 43.29 9.14 42.36 9.14L39.65 9.14ZM47.82 14.35L47.82 9.45C47.82 8.76 48.55 8.25 49.76 8.25L50.41 8.25L50.41 7.13L49.98 7.13C48.80 7.13 48.15 7.77 47.89 8.46L47.82 8.46L47.82 7.13L46.70 7.13L46.70 14.35ZM54.50 14.52C56.43 14.52 57.76 13.03 57.76 10.74C57.76 8.44 56.43 6.96 54.50 6.96C52.57 6.96 51.24 8.44 51.24 10.74C51.24 13.03 52.57 14.52 54.50 14.52ZM54.50 13.52C53.30 13.52 52.44 12.78 52.44 11.26L52.44 10.22C52.44 8.69 53.30 7.95 54.50 7.95C55.71 7.95 56.56 8.69 56.56 10.22L56.56 11.26C56.56 12.78 55.71 13.52 54.50 13.52Z"></path></g><!----><g data-v-423bf9ae="" id="000f84c4-1b41-4e17-8397-decf6139f769" transform="matrix(1.035911634958751,0,0,1.035911634958751,-6.790836030814667,-6.217839977111815)" stroke="none" fill="black"><path d="M34.571 16.321h5.716v5.716h-5.716zM34.571 28.368h5.716v5.716h-5.716zM34.571 40.416h5.716v5.716h-5.716zM34.571 52.464h5.716v5.716h-5.716zM80.349 16.321h5.716v5.716h-5.716zM80.349 28.368h5.716v5.716h-5.716zM80.349 40.416h5.716v5.716h-5.716zM80.349 52.464h5.716v5.716h-5.716zM52.324 50.356a1.12 1.12 0 0 1-1.118-1.117V26.271a1.117 1.117 0 0 1 1.702-.951l18.704 11.483c.332.203.532.563.532.951 0 .389-.201.749-.532.951L52.909 50.19a1.109 1.109 0 0 1-.585.166zm1.118-22.088v18.974l15.45-9.488-15.45-9.486z"></path><path d="M81.978 8.301c4.025 0 7.3 3.275 7.3 7.3V59.3c0 4.025-3.275 7.3-7.3 7.3H38.279c-4.025 0-7.3-3.275-7.3-7.3V15.601c0-4.025 3.275-7.3 7.3-7.3h43.699m0-2.235H38.279a9.535 9.535 0 0 0-9.535 9.535V59.3a9.535 9.535 0 0 0 9.535 9.535h43.699a9.535 9.535 0 0 0 9.535-9.535V15.601c-.001-5.266-4.27-9.535-9.535-9.535z"></path><path d="M74.63 71.069h-2.299l.225.924a7.487 7.487 0 0 1-.884 5.706 7.503 7.503 0 0 1-4.661 3.409l-38.573 9.386a7.502 7.502 0 0 1-5.706-.886 7.5 7.5 0 0 1-3.409-4.661L9.94 46.377a7.492 7.492 0 0 1 .886-5.706 7.5 7.5 0 0 1 4.661-3.409L26.51 34.58v-2.3l-11.551 2.809a9.724 9.724 0 0 0-6.043 4.419 9.72 9.72 0 0 0-1.148 7.396l9.386 38.57a9.707 9.707 0 0 0 4.417 6.043 9.725 9.725 0 0 0 5.065 1.429c.775 0 1.558-.094 2.331-.284l38.573-9.386a9.693 9.693 0 0 0 6.04-4.417 9.708 9.708 0 0 0 1.148-7.396l-.098-.394z"></path></g><!----></svg>