<svg data-v-423bf9ae="" xmlns="http://www.w3.org/2000/svg" viewBox="0 0 334.4500426699494 60" class="font"><!----><!----><!----><g data-v-423bf9ae="" id="5ceb76de-5ee0-4fe9-937d-0cfd097904d7" fill="white" transform="matrix(6.054490506946714,0,0,6.054490506946714,-1.2108912226678399,-10.171544694269905)"><path d="M7.71 2.21L0.20 2.21L0.20 3.22L3.43 3.22L3.43 11.48L4.48 11.48L4.48 3.22L7.71 3.22ZM11.49 4.37C9.76 4.37 9.06 5.73 8.92 6.20L8.92 4.48L7.87 4.48L7.87 11.48L8.92 11.48L8.92 8.40C8.92 6.86 9.87 5.42 11.44 5.42L11.56 5.42L11.56 4.37ZM15.47 4.37C13.43 4.37 12.08 5.98 12.08 7.98C12.08 9.98 13.43 11.59 15.47 11.59C16.63 11.59 17.46 11.12 17.98 10.36L17.98 11.48L19.03 11.48L19.03 4.48L17.98 4.48L17.98 5.61C17.46 4.86 16.63 4.37 15.47 4.37ZM15.61 10.64C14.06 10.64 13.13 9.42 13.13 7.98C13.13 6.54 14.06 5.32 15.61 5.32C17.16 5.32 18.03 6.54 18.03 7.98C18.03 9.42 17.16 10.64 15.61 10.64ZM24.00 10.64C22.44 10.64 21.46 9.42 21.46 7.98C21.46 6.54 22.44 5.32 24.00 5.32C24.99 5.32 25.70 5.88 26.03 6.68L27.16 6.68C26.75 5.32 25.51 4.37 23.86 4.37C21.76 4.37 20.41 5.98 20.41 7.98C20.41 9.98 21.76 11.59 23.86 11.59C25.51 11.59 26.75 10.64 27.16 9.28L26.03 9.28C25.70 10.08 24.99 10.64 24.00 10.64ZM34.36 4.48L32.89 4.48L29.51 7.95L29.51 1.68L28.46 1.68L28.46 11.48L29.51 11.48L29.51 9.27L30.83 7.97L33.28 11.48L34.57 11.48L31.54 7.24ZM36.76 8.18L39.89 8.18C41.86 8.18 43.08 7.03 43.08 5.19C43.08 3.37 41.86 2.21 39.89 2.21L35.71 2.21L35.71 11.48L36.76 11.48ZM39.82 3.21C41.27 3.21 42.03 3.96 42.03 5.19C42.03 6.44 41.27 7.20 39.82 7.20L36.76 7.20L36.76 3.21ZM47.91 4.37C46.17 4.37 45.47 5.73 45.33 6.20L45.33 4.48L44.28 4.48L44.28 11.48L45.33 11.48L45.33 8.40C45.33 6.86 46.28 5.42 47.85 5.42L47.98 5.42L47.98 4.37ZM51.97 4.37C49.83 4.37 48.50 5.98 48.50 7.98C48.50 9.98 49.83 11.59 51.97 11.59C54.11 11.59 55.44 9.98 55.44 7.98C55.44 5.98 54.11 4.37 51.97 4.37ZM51.97 10.64C50.41 10.64 49.55 9.42 49.55 7.98C49.55 6.54 50.41 5.32 51.97 5.32C53.52 5.32 54.39 6.54 54.39 7.98C54.39 9.42 53.52 10.64 51.97 10.64Z"></path></g><!----><!----></svg>